<svg xmlns="http://www.w3.org/2000/svg" viewBox="0 0 512 512" width="512" height="512">
  <defs>
    <linearGradient id="bg" x1="0%" y1="0%" x2="100%" y2="100%">
      <stop offset="0%" stop-color="#667eea"/>
      <stop offset="100%" stop-color="#764ba2"/>
    </linearGradient>
  </defs>
  <circle cx="256" cy="256" r="248" fill="url(#bg)"/>
  <!-- Sun -->
  <circle cx="345" cy="145" r="58" fill="#fbbf24" opacity="0.9"/>
  <g stroke="#fbbf24" stroke-width="7" stroke-linecap="round" opacity="0.7">
    <line x1="345" y1="72" x2="345" y2="56"/>
    <line x1="345" y1="234" x2="345" y2="218"/>
    <line x1="272" y1="145" x2="256" y2="145"/>
    <line x1="434" y1="145" x2="418" y2="145"/>
    <line x1="293.4" y1="93.4" x2="282" y2="82"/>
    <line x1="396.6" y1="196.6" x2="408" y2="208"/>
    <line x1="396.6" y1="93.4" x2="408" y2="82"/>
    <line x1="293.4" y1="196.6" x2="282" y2="208"/>
  </g>
  <!-- Leaf -->
  <g transform="translate(125, 155)">
    <path d="M25 255 Q25 105 145 40 Q265 105 265 255 Q145 215 25 255Z" fill="#4ade80" opacity="0.9"/>
    <path d="M145 40 Q135 150 80 230" fill="none" stroke="#22c55e" stroke-width="7" stroke-linecap="round"/>
    <path d="M118 120 Q145 108 172 132" fill="none" stroke="#22c55e" stroke-width="5" stroke-linecap="round"/>
    <path d="M100 162 Q132 148 160 175" fill="none" stroke="#22c55e" stroke-width="5" stroke-linecap="round"/>
    <path d="M85 202 Q118 188 148 210" fill="none" stroke="#22c55e" stroke-width="5" stroke-linecap="round"/>
  </g>
</svg>
