<svg xmlns="http://www.w3.org/2000/svg" viewBox="0 0 192 192" width="192" height="192">
  <defs>
    <linearGradient id="bg" x1="0%" y1="0%" x2="100%" y2="100%">
      <stop offset="0%" stop-color="#667eea"/>
      <stop offset="100%" stop-color="#764ba2"/>
    </linearGradient>
  </defs>
  <circle cx="96" cy="96" r="92" fill="url(#bg)"/>
  <!-- Sun -->
  <circle cx="130" cy="55" r="22" fill="#fbbf24" opacity="0.9"/>
  <g stroke="#fbbf24" stroke-width="3" stroke-linecap="round" opacity="0.7">
    <line x1="130" y1="26" x2="130" y2="20"/>
    <line x1="130" y1="90" x2="130" y2="84"/>
    <line x1="101" y1="55" x2="95" y2="55"/>
    <line x1="165" y1="55" x2="159" y2="55"/>
    <line x1="109.5" y1="34.5" x2="105.3" y2="30.3"/>
    <line x1="150.5" y1="75.5" x2="154.7" y2="79.7"/>
    <line x1="150.5" y1="34.5" x2="154.7" y2="30.3"/>
    <line x1="109.5" y1="75.5" x2="105.3" y2="79.7"/>
  </g>
  <!-- Leaf -->
  <g transform="translate(48, 60)">
    <path d="M10 95 Q10 40 55 15 Q100 40 100 95 Q55 80 10 95Z" fill="#4ade80" opacity="0.9"/>
    <path d="M55 15 Q50 55 30 85" fill="none" stroke="#22c55e" stroke-width="3" stroke-linecap="round"/>
    <path d="M45 45 Q55 40 65 50" fill="none" stroke="#22c55e" stroke-width="2" stroke-linecap="round"/>
    <path d="M38 60 Q50 55 60 65" fill="none" stroke="#22c55e" stroke-width="2" stroke-linecap="round"/>
    <path d="M32 75 Q45 70 55 78" fill="none" stroke="#22c55e" stroke-width="2" stroke-linecap="round"/>
  </g>
</svg>
